<svg xmlns="http://www.w3.org/2000/svg" viewBox="0 0 512 512" role="img" aria-label="Avatar padrao">
  <rect width="512" height="512" fill="#ffffff"/>
  <circle cx="256" cy="256" r="218" fill="#ffd60a"/>
  <path fill="#2aa3ad" d="M111 422c24-63 79-104 145-104s121 41 145 104a217 217 0 0 1-290 0z"/>
  <path fill="#343434" d="M173 324c22-32 48-49 83-49s61 17 83 49l-83 83z"/>
  <path fill="#edc2a5" d="M177 202c-4 40 4 92 20 123 14 28 34 48 59 48s45-20 59-48c16-31 24-83 20-123-5-53-42-91-79-91s-74 38-79 91z"/>
  <path fill="#ddb08f" d="M310 216c-8 40-15 75-15 93 0 18-11 41-34 61 23-2 42-21 55-48 15-32 22-80 19-118-7 5-17 8-25 12z"/>
  <path fill="#12090b" d="M147 206c20-10 24-40 44-64 28-35 63-41 98-24 22-12 44-7 55 20 34-12 76 14 76 55 20 9 18 41 1 57 21-1 37-9 47-25-2 26-20 44-51 45-2 24-9 43-23 58 2-39-10-74-6-110-44-4-63-31-91-28-17 2-14 17-45 20-35 4-69 5-87 18-15 11-13 31-7 52-27-8-42-26-44-54-12 7-32 3-42-14 10 4 20 3 25-2z"/>
  <path fill="#12090b" d="M155 208c-15 30-10 58 5 83-4-33 8-53 31-61l-36-22z"/>
</svg>
